<svg xmlns="http://www.w3.org/2000/svg" aria-hidden="true" style="position:absolute;width:0;height:0;overflow:hidden">
    <defs>
        <symbol id="icon-heart" viewBox="0 0 32 32">
            <path
                d="M16 29.286c.286 0 .571-.107.786-.322L27.911 18.25C28.072 18.089 32 14.5 32 10.214c0-5.232-3.196-8.357-8.536-8.357-3.125 0-6.053 2.464-7.464 3.857-1.411-1.393-4.339-3.857-7.464-3.857C3.197 1.857 0 4.982 0 10.214c0 4.286 3.929 7.875 4.071 8l11.143 10.75c.214.214.5.322.786.322z" />
        </symbol>
        <symbol id="icon-snake" viewBox="0 0 32 32">
            <path
                d="m16.857 13.587 2.079.968 3.095-.921v-2.159c0-3.667-3.095-6.603-6.794-6.603-3.683 0-6.794 2.921-6.794 6.556v9.841c0 .905-.73 1.619-1.619 1.619s-1.619-.714-1.619-1.619V17.11H-.001v4.222a6.809 6.809 0 0 0 6.81 6.81c3.73 0 6.809-3 6.809-6.714v-9.714c0-.889.73-1.619 1.619-1.619s1.619.73 1.619 1.619v1.873zm8.413 3.524v4.365c0 .889-.73 1.603-1.619 1.603s-1.619-.714-1.619-1.603V17.19l-3.095.921-2.079-.968v4.254c0 3.73 3.064 6.746 6.81 6.746a6.809 6.809 0 0 0 6.81-6.81v-4.222h-5.206z" />
        </symbol>
        <symbol id="icon-arrow" viewBox="0 0 32 32">
            <path
                d="M24.689 18.067 7.479.857a1.003 1.003 0 0 0-.756-.319c-.134 0-.286.034-.403.084a1.079 1.079 0 0 0-.672.992v25.277c0 .437.269.824.672.992.118.05.269.084.403.084.286 0 .555-.118.756-.319l5.244-5.244 3.21 7.597a1.08 1.08 0 0 0 1.412.571l2.975-1.261a1.08 1.08 0 0 0 .571-1.412l-3.378-8h6.42c.437 0 .824-.269.992-.672a1.038 1.038 0 0 0-.235-1.16z" />
        </symbol>
        <symbol id="icon-clock" viewBox="0 0 32 32">
            <path
                d="M26.487 2.689h1.614a.531.531 0 0 0 .538-.538V1.075a.53.53 0 0 0-.538-.538H3.361a.53.53 0 0 0-.538.538v1.076a.53.53 0 0 0 .538.538h1.613c0 6.219 2.975 10.723 6.269 12.908-3.294 2.185-6.269 6.689-6.269 12.908H3.361a.53.53 0 0 0-.538.538v1.076c0 .302.235.538.538.538h24.74a.531.531 0 0 0 .538-.538v-1.076a.531.531 0 0 0-.538-.538h-1.614c0-6.219-2.975-10.723-6.269-12.908 3.294-2.185 6.269-6.689 6.269-12.908zm-2.151 0c0 2.454-.555 4.622-1.429 6.454H8.554c-.874-1.832-1.429-4-1.429-6.454h17.21zm-.958 20.437H8.084c1.244-3.244 3.479-5.546 5.714-6.454h3.866c2.235.908 4.471 3.21 5.714 6.454z" />
        </symbol>
        <symbol id="icon-triangle" viewBox="0 0 28 32">
            <path
                d="M26.088 12.891c2.441 1.354 2.441 4.864 0 6.218L4.933 30.848c-2.37 1.315-5.281-.399-5.281-3.109V4.262c0-2.71 2.911-4.424 5.281-3.109l21.155 11.739z" />
        </symbol>
        <symbol id="icon-checkbox" viewBox="0 0 32 32">
            <path stroke-width="2" d="M4 1h24a3 3 0 0 1 3 3v24a3 3 0 0 1-3 3H4a3 3 0 0 1-3-3V4a3 3 0 0 1 3-3z" />
        </symbol>
        <symbol id="icon-path" viewBox="0 0 45 32">
            <path fill="#fff"
                d="M42.17.638a2.108 2.108 0 0 0-3.022 0L13.542 26.74 3.699 16.707c-.835-.851-2.188-.851-3.023 0s-.835 2.23 0 3.081L12.03 31.362a2.11 2.11 0 0 0 3.023 0L42.17 3.719a2.208 2.208 0 0 0 0-3.081z"
                style="fill:var(--color1, #fff)" />
        </symbol>
        <symbol id="icon-checkblue" viewBox="0 0 33 32">
            <path fill="#4d8dff" style="fill: var(--color1, #4d8dff)"
                d="M12.667 1.333h6.726c6.259 0 11.333 5.074 11.333 11.333v6.667c0 6.259-5.074 11.333-11.333 11.333h-6.726c-6.259 0-11.333-5.074-11.333-11.333v-6.667c0-6.259 5.074-11.333 11.333-11.333z">
            </path>
            <path fill="none" stroke="#fff" style="stroke: var(--color2, #fff)" stroke-linejoin="miter"
                stroke-linecap="butt" stroke-miterlimit="4" stroke-width="2.6667"
                d="M12.667 1.333h6.726c6.259 0 11.333 5.074 11.333 11.333v6.667c0 6.259-5.074 11.333-11.333 11.333h-6.726c-6.259 0-11.333-5.074-11.333-11.333v-6.667c0-6.259 5.074-11.333 11.333-11.333z">
            </path>
            <path fill="none" stroke="#4d8dff" style="stroke: var(--color1, #4d8dff)" stroke-linejoin="miter"
                stroke-linecap="butt" stroke-miterlimit="4" stroke-width="2.6667"
                d="M12.667 1.333h6.726c6.259 0 11.333 5.074 11.333 11.333v6.667c0 6.259-5.074 11.333-11.333 11.333h-6.726c-6.259 0-11.333-5.074-11.333-11.333v-6.667c0-6.259 5.074-11.333 11.333-11.333z">
            </path>
            <path fill="#fff" style="fill: var(--color2, #fff)"
                d="M23.601 11.19c-0.286-0.292-0.75-0.292-1.036 0l-8.779 8.949-3.375-3.44c-0.286-0.292-0.75-0.292-1.036 0s-0.286 0.765 0 1.056l3.893 3.968c0.286 0.292 0.75 0.291 1.036 0l9.297-9.478c0.286-0.292 0.286-0.765 0-1.056z">
            </path>
        </symbol>
        <symbol id="icon-checkorange" viewBox="0 0 33 32">
            <path fill="#f90" style="fill: var(--color3, #f90)"
                d="M12.667 1.333h6.726c6.259 0 11.333 5.074 11.333 11.333v6.667c0 6.259-5.074 11.333-11.333 11.333h-6.726c-6.259 0-11.333-5.074-11.333-11.333v-6.667c0-6.259 5.074-11.333 11.333-11.333z">
            </path>
            <path fill="none" stroke="#fff" style="stroke: var(--color2, #fff)" stroke-linejoin="miter"
                stroke-linecap="butt" stroke-miterlimit="4" stroke-width="2.6667"
                d="M12.667 1.333h6.726c6.259 0 11.333 5.074 11.333 11.333v6.667c0 6.259-5.074 11.333-11.333 11.333h-6.726c-6.259 0-11.333-5.074-11.333-11.333v-6.667c0-6.259 5.074-11.333 11.333-11.333z">
            </path>
            <path fill="none" stroke="#f90" style="stroke: var(--color3, #f90)" stroke-linejoin="miter"
                stroke-linecap="butt" stroke-miterlimit="4" stroke-width="2.6667"
                d="M12.667 1.333h6.726c6.259 0 11.333 5.074 11.333 11.333v6.667c0 6.259-5.074 11.333-11.333 11.333h-6.726c-6.259 0-11.333-5.074-11.333-11.333v-6.667c0-6.259 5.074-11.333 11.333-11.333z">
            </path>
            <path fill="#fff" style="fill: var(--color2, #fff)"
                d="M23.601 11.19c-0.286-0.292-0.75-0.292-1.036 0l-8.779 8.949-3.375-3.44c-0.286-0.292-0.75-0.292-1.036 0s-0.286 0.765 0 1.056l3.893 3.968c0.286 0.292 0.75 0.291 1.036 0l9.297-9.478c0.286-0.292 0.286-0.765 0-1.056z">
            </path>
        </symbol>
        <symbol id="icon-checkred" viewBox="0 0 33 32">
            <path fill="#f03e3d" style="fill: var(--color4, #f03e3d)"
                d="M12.667 1.333h6.726c6.259 0 11.333 5.074 11.333 11.333v6.667c0 6.259-5.074 11.333-11.333 11.333h-6.726c-6.259 0-11.333-5.074-11.333-11.333v-6.667c0-6.259 5.074-11.333 11.333-11.333z">
            </path>
            <path fill="none" stroke="#fff" style="stroke: var(--color2, #fff)" stroke-linejoin="miter"
                stroke-linecap="butt" stroke-miterlimit="4" stroke-width="2.6667"
                d="M12.667 1.333h6.726c6.259 0 11.333 5.074 11.333 11.333v6.667c0 6.259-5.074 11.333-11.333 11.333h-6.726c-6.259 0-11.333-5.074-11.333-11.333v-6.667c0-6.259 5.074-11.333 11.333-11.333z">
            </path>
            <path fill="none" stroke="#f03e3d" style="stroke: var(--color4, #f03e3d)" stroke-linejoin="miter"
                stroke-linecap="butt" stroke-miterlimit="4" stroke-width="2.6667"
                d="M12.667 1.333h6.726c6.259 0 11.333 5.074 11.333 11.333v6.667c0 6.259-5.074 11.333-11.333 11.333h-6.726c-6.259 0-11.333-5.074-11.333-11.333v-6.667c0-6.259 5.074-11.333 11.333-11.333z">
            </path>
            <path fill="#fff" style="fill: var(--color2, #fff)"
                d="M23.601 11.19c-0.286-0.292-0.75-0.292-1.036 0l-8.779 8.949-3.375-3.44c-0.286-0.292-0.75-0.292-1.036 0s-0.286 0.765 0 1.056l3.893 3.968c0.286 0.292 0.75 0.291 1.036 0l9.297-9.478c0.286-0.292 0.286-0.765 0-1.056z">
            </path>
        </symbol>
    </defs>
</svg>